<?xml version="1.0" encoding="utf-8" standalone="no"?>
<!DOCTYPE svg PUBLIC "-//W3C//DTD SVG 1.1//EN"
  "http://www.w3.org/Graphics/SVG/1.1/DTD/svg11.dtd">
<svg xmlns:xlink="http://www.w3.org/1999/xlink" width="576pt" height="576pt" viewBox="0 0 576 576" xmlns="http://www.w3.org/2000/svg" version="1.1">
 <metadata>
  <rdf:RDF xmlns:dc="http://purl.org/dc/elements/1.1/" xmlns:cc="http://creativecommons.org/ns#" xmlns:rdf="http://www.w3.org/1999/02/22-rdf-syntax-ns#">
   <cc:Work>
    <dc:type rdf:resource="http://purl.org/dc/dcmitype/StillImage"/>
    <dc:date>2024-11-29T00:48:29.127234</dc:date>
    <dc:format>image/svg+xml</dc:format>
    <dc:creator>
     <cc:Agent>
      <dc:title>Matplotlib v3.7.3, https://matplotlib.org/</dc:title>
     </cc:Agent>
    </dc:creator>
   </cc:Work>
  </rdf:RDF>
 </metadata>
 <defs>
  <style type="text/css">*{stroke-linejoin: round; stroke-linecap: butt}</style>
 </defs>
 <g id="figure_1">
  <g id="patch_1">
   <path d="M 0 576 
L 576 576 
L 576 0 
L 0 0 
z
" style="fill: #ffffff"/>
  </g>
  <g id="patch_2">
   <path d="M 57.6 518.4 
L 518.4 518.4 
L 518.4 57.6 
L 57.6 57.6 
z
" style="fill: #ffffff"/>
  </g>
  <g id="pane3d_1">
   <g id="patch_3">
    <path d="M 475.91432 362.537798 
L 212.575178 335.423959 
L 210.798686 134.342703 
L 480.019273 154.337114 
" style="fill: #f2f2f2; opacity: 0.5; stroke: #f2f2f2; stroke-linejoin: miter"/>
   </g>
  </g>
  <g id="pane3d_2">
   <g id="patch_4">
    <path d="M 99.76144 415.157921 
L 212.575178 335.423959 
L 210.798686 134.342703 
L 95.051284 193.234068 
" style="fill: #e6e6e6; opacity: 0.5; stroke: #e6e6e6; stroke-linejoin: miter"/>
   </g>
  </g>
  <g id="pane3d_3">
   <g id="patch_5">
    <path d="M 388.710526 448.739349 
L 475.91432 362.537798 
L 212.575178 335.423959 
L 99.76144 415.157921 
" style="fill: #ececec; opacity: 0.5; stroke: #ececec; stroke-linejoin: miter"/>
   </g>
  </g>
  <g id="axis3d_1">
   <g id="line2d_1">
    <path d="M 475.91432 362.537798 
L 388.710526 448.739349 
" style="fill: none; stroke: #000000; stroke-width: 0.8; stroke-linecap: square"/>
   </g>
   <g id="text_1">
    <!-- y -->
    <g transform="translate(461.280229 431.617033) scale(0.1 -0.1)">
     <defs>
      <path id="DejaVuSans-79" d="M 2059 -325 
Q 1816 -950 1584 -1140 
Q 1353 -1331 966 -1331 
L 506 -1331 
L 506 -850 
L 844 -850 
Q 1081 -850 1212 -737 
Q 1344 -625 1503 -206 
L 1606 56 
L 191 3500 
L 800 3500 
L 1894 763 
L 2988 3500 
L 3597 3500 
L 2059 -325 
z
" transform="scale(0.015625)"/>
     </defs>
     <use xlink:href="#DejaVuSans-79"/>
    </g>
   </g>
   <g id="Line3DCollection_1">
    <path d="M 396.884743 440.659078 
L 110.296391 407.712078 
L 105.883819 187.722559 
" style="fill: none; stroke: #b0b0b0; stroke-width: 0.8"/>
    <path d="M 412.608577 425.115961 
L 130.584423 393.372998 
L 126.731197 177.115578 
" style="fill: none; stroke: #b0b0b0; stroke-width: 0.8"/>
    <path d="M 427.751783 410.146797 
L 150.1521 379.543048 
L 146.821245 166.89392 
" style="fill: none; stroke: #b0b0b0; stroke-width: 0.8"/>
    <path d="M 442.345941 395.720371 
L 169.037117 366.195585 
L 166.194496 157.036963 
" style="fill: none; stroke: #b0b0b0; stroke-width: 0.8"/>
    <path d="M 456.420379 381.807693 
L 187.274587 353.305792 
L 184.888639 147.52553 
" style="fill: none; stroke: #b0b0b0; stroke-width: 0.8"/>
    <path d="M 470.002372 368.381799 
L 204.897253 340.850527 
L 202.938766 138.341768 
" style="fill: none; stroke: #b0b0b0; stroke-width: 0.8"/>
   </g>
   <g id="xtick_1">
    <g id="line2d_2">
     <path d="M 394.497616 440.384648 
L 401.66376 441.208488 
" style="fill: none; stroke: #000000; stroke-width: 0.8; stroke-linecap: square"/>
    </g>
    <g id="text_2">
     <!-- −1000 -->
     <g transform="translate(394.164168 460.595101) scale(0.1 -0.1)">
      <defs>
       <path id="DejaVuSans-2212" d="M 678 2272 
L 4684 2272 
L 4684 1741 
L 678 1741 
L 678 2272 
z
" transform="scale(0.015625)"/>
       <path id="DejaVuSans-31" d="M 794 531 
L 1825 531 
L 1825 4091 
L 703 3866 
L 703 4441 
L 1819 4666 
L 2450 4666 
L 2450 531 
L 3481 531 
L 3481 0 
L 794 0 
L 794 531 
z
" transform="scale(0.015625)"/>
       <path id="DejaVuSans-30" d="M 2034 4250 
Q 1547 4250 1301 3770 
Q 1056 3291 1056 2328 
Q 1056 1369 1301 889 
Q 1547 409 2034 409 
Q 2525 409 2770 889 
Q 3016 1369 3016 2328 
Q 3016 3291 2770 3770 
Q 2525 4250 2034 4250 
z
M 2034 4750 
Q 2819 4750 3233 4129 
Q 3647 3509 3647 2328 
Q 3647 1150 3233 529 
Q 2819 -91 2034 -91 
Q 1250 -91 836 529 
Q 422 1150 422 2328 
Q 422 3509 836 4129 
Q 1250 4750 2034 4750 
z
" transform="scale(0.015625)"/>
      </defs>
      <use xlink:href="#DejaVuSans-2212"/>
      <use xlink:href="#DejaVuSans-31" x="83.789062"/>
      <use xlink:href="#DejaVuSans-30" x="147.412109"/>
      <use xlink:href="#DejaVuSans-30" x="211.035156"/>
      <use xlink:href="#DejaVuSans-30" x="274.658203"/>
     </g>
    </g>
   </g>
   <g id="xtick_2">
    <g id="line2d_3">
     <path d="M 410.261214 424.851756 
L 417.307897 425.644888 
" style="fill: none; stroke: #000000; stroke-width: 0.8; stroke-linecap: square"/>
    </g>
    <g id="text_3">
     <!-- 0 -->
     <g transform="translate(423.367049 444.807193) scale(0.1 -0.1)">
      <use xlink:href="#DejaVuSans-30"/>
     </g>
    </g>
   </g>
   <g id="xtick_3">
    <g id="line2d_4">
     <path d="M 425.442903 409.892256 
L 432.37398 410.656367 
" style="fill: none; stroke: #000000; stroke-width: 0.8; stroke-linecap: square"/>
    </g>
    <g id="text_4">
     <!-- 1000 -->
     <g transform="translate(428.720908 429.602739) scale(0.1 -0.1)">
      <use xlink:href="#DejaVuSans-31"/>
      <use xlink:href="#DejaVuSans-30" x="63.623047"/>
      <use xlink:href="#DejaVuSans-30" x="127.246094"/>
      <use xlink:href="#DejaVuSans-30" x="190.869141"/>
     </g>
    </g>
   </g>
   <g id="xtick_4">
    <g id="line2d_5">
     <path d="M 440.074321 395.474975 
L 446.893467 396.211628 
" style="fill: none; stroke: #000000; stroke-width: 0.8; stroke-linecap: square"/>
    </g>
    <g id="text_5">
     <!-- 2000 -->
     <g transform="translate(443.077953 414.949983) scale(0.1 -0.1)">
      <defs>
       <path id="DejaVuSans-32" d="M 1228 531 
L 3431 531 
L 3431 0 
L 469 0 
L 469 531 
Q 828 903 1448 1529 
Q 2069 2156 2228 2338 
Q 2531 2678 2651 2914 
Q 2772 3150 2772 3378 
Q 2772 3750 2511 3984 
Q 2250 4219 1831 4219 
Q 1534 4219 1204 4116 
Q 875 4013 500 3803 
L 500 4441 
Q 881 4594 1212 4672 
Q 1544 4750 1819 4750 
Q 2544 4750 2975 4387 
Q 3406 4025 3406 3419 
Q 3406 3131 3298 2873 
Q 3191 2616 2906 2266 
Q 2828 2175 2409 1742 
Q 1991 1309 1228 531 
z
" transform="scale(0.015625)"/>
      </defs>
      <use xlink:href="#DejaVuSans-32"/>
      <use xlink:href="#DejaVuSans-30" x="63.623047"/>
      <use xlink:href="#DejaVuSans-30" x="127.246094"/>
      <use xlink:href="#DejaVuSans-30" x="190.869141"/>
     </g>
    </g>
   </g>
   <g id="xtick_5">
    <g id="line2d_6">
     <path d="M 454.184852 381.570956 
L 460.895573 382.281606 
" style="fill: none; stroke: #000000; stroke-width: 0.8; stroke-linecap: square"/>
    </g>
    <g id="text_6">
     <!-- 3000 -->
     <g transform="translate(456.923332 400.819432) scale(0.1 -0.1)">
      <defs>
       <path id="DejaVuSans-33" d="M 2597 2516 
Q 3050 2419 3304 2112 
Q 3559 1806 3559 1356 
Q 3559 666 3084 287 
Q 2609 -91 1734 -91 
Q 1441 -91 1130 -33 
Q 819 25 488 141 
L 488 750 
Q 750 597 1062 519 
Q 1375 441 1716 441 
Q 2309 441 2620 675 
Q 2931 909 2931 1356 
Q 2931 1769 2642 2001 
Q 2353 2234 1838 2234 
L 1294 2234 
L 1294 2753 
L 1863 2753 
Q 2328 2753 2575 2939 
Q 2822 3125 2822 3475 
Q 2822 3834 2567 4026 
Q 2313 4219 1838 4219 
Q 1578 4219 1281 4162 
Q 984 4106 628 3988 
L 628 4550 
Q 988 4650 1302 4700 
Q 1616 4750 1894 4750 
Q 2613 4750 3031 4423 
Q 3450 4097 3450 3541 
Q 3450 3153 3228 2886 
Q 3006 2619 2597 2516 
z
" transform="scale(0.015625)"/>
      </defs>
      <use xlink:href="#DejaVuSans-33"/>
      <use xlink:href="#DejaVuSans-30" x="63.623047"/>
      <use xlink:href="#DejaVuSans-30" x="127.246094"/>
      <use xlink:href="#DejaVuSans-30" x="190.869141"/>
     </g>
    </g>
   </g>
   <g id="xtick_6">
    <g id="line2d_7">
     <path d="M 467.801826 368.153271 
L 474.40747 368.83927 
" style="fill: none; stroke: #000000; stroke-width: 0.8; stroke-linecap: square"/>
    </g>
    <g id="text_7">
     <!-- 4000 -->
     <g transform="translate(470.283918 387.183658) scale(0.1 -0.1)">
      <defs>
       <path id="DejaVuSans-34" d="M 2419 4116 
L 825 1625 
L 2419 1625 
L 2419 4116 
z
M 2253 4666 
L 3047 4666 
L 3047 1625 
L 3713 1625 
L 3713 1100 
L 3047 1100 
L 3047 0 
L 2419 0 
L 2419 1100 
L 313 1100 
L 313 1709 
L 2253 4666 
z
" transform="scale(0.015625)"/>
      </defs>
      <use xlink:href="#DejaVuSans-34"/>
      <use xlink:href="#DejaVuSans-30" x="63.623047"/>
      <use xlink:href="#DejaVuSans-30" x="127.246094"/>
      <use xlink:href="#DejaVuSans-30" x="190.869141"/>
     </g>
    </g>
   </g>
  </g>
  <g id="axis3d_2">
   <g id="line2d_8">
    <path d="M 99.76144 415.157921 
L 388.710526 448.739349 
" style="fill: none; stroke: #000000; stroke-width: 0.8; stroke-linecap: square"/>
   </g>
   <g id="text_8">
    <!-- z -->
    <g transform="translate(227.014891 467.266623) scale(0.1 -0.1)">
     <defs>
      <path id="DejaVuSans-7a" d="M 353 3500 
L 3084 3500 
L 3084 2975 
L 922 459 
L 3084 459 
L 3084 0 
L 275 0 
L 275 525 
L 2438 3041 
L 353 3041 
L 353 3500 
z
" transform="scale(0.015625)"/>
     </defs>
     <use xlink:href="#DejaVuSans-7a"/>
    </g>
   </g>
   <g id="Line3DCollection_2">
    <path d="M 455.275224 152.499429 
L 451.728818 360.047618 
L 362.072373 445.643485 
" style="fill: none; stroke: #b0b0b0; stroke-width: 0.8"/>
    <path d="M 408.918767 149.056638 
L 406.40897 355.381411 
L 312.211593 439.848705 
" style="fill: none; stroke: #b0b0b0; stroke-width: 0.8"/>
    <path d="M 363.151681 145.657619 
L 361.652783 350.773239 
L 263.04115 434.134157 
" style="fill: none; stroke: #b0b0b0; stroke-width: 0.8"/>
    <path d="M 317.962795 142.301542 
L 317.449806 346.222027 
L 214.546806 428.498183 
" style="fill: none; stroke: #b0b0b0; stroke-width: 0.8"/>
    <path d="M 273.341223 138.987597 
L 273.789845 341.726724 
L 166.71471 422.939176 
" style="fill: none; stroke: #b0b0b0; stroke-width: 0.8"/>
    <path d="M 229.276348 135.714997 
L 230.662955 337.286307 
L 119.53139 417.455569 
" style="fill: none; stroke: #b0b0b0; stroke-width: 0.8"/>
   </g>
   <g id="xtick_7">
    <g id="line2d_9">
     <path d="M 362.871223 444.880815 
L 360.470264 447.173034 
" style="fill: none; stroke: #000000; stroke-width: 0.8; stroke-linecap: square"/>
    </g>
    <g id="text_9">
     <!-- −1000 -->
     <g transform="translate(340.267407 468.622464) scale(0.1 -0.1)">
      <use xlink:href="#DejaVuSans-2212"/>
      <use xlink:href="#DejaVuSans-31" x="83.789062"/>
      <use xlink:href="#DejaVuSans-30" x="147.412109"/>
      <use xlink:href="#DejaVuSans-30" x="211.035156"/>
      <use xlink:href="#DejaVuSans-30" x="274.658203"/>
     </g>
    </g>
   </g>
   <g id="xtick_8">
    <g id="line2d_10">
     <path d="M 313.050307 439.096627 
L 310.52957 441.356985 
" style="fill: none; stroke: #000000; stroke-width: 0.8; stroke-linecap: square"/>
    </g>
    <g id="text_10">
     <!-- 0 -->
     <g transform="translate(303.959439 462.695017) scale(0.1 -0.1)">
      <use xlink:href="#DejaVuSans-30"/>
     </g>
    </g>
   </g>
   <g id="xtick_9">
    <g id="line2d_11">
     <path d="M 263.918551 433.39245 
L 261.281574 435.621607 
" style="fill: none; stroke: #000000; stroke-width: 0.8; stroke-linecap: square"/>
    </g>
    <g id="text_11">
     <!-- 1000 -->
     <g transform="translate(245.069934 456.849988) scale(0.1 -0.1)">
      <use xlink:href="#DejaVuSans-31"/>
      <use xlink:href="#DejaVuSans-30" x="63.623047"/>
      <use xlink:href="#DejaVuSans-30" x="127.246094"/>
      <use xlink:href="#DejaVuSans-30" x="190.869141"/>
     </g>
    </g>
   </g>
   <g id="xtick_10">
    <g id="line2d_12">
     <path d="M 215.461754 427.766636 
L 212.711962 429.965233 
" style="fill: none; stroke: #000000; stroke-width: 0.8; stroke-linecap: square"/>
    </g>
    <g id="text_12">
     <!-- 2000 -->
     <g transform="translate(196.405573 451.085671) scale(0.1 -0.1)">
      <use xlink:href="#DejaVuSans-32"/>
      <use xlink:href="#DejaVuSans-30" x="63.623047"/>
      <use xlink:href="#DejaVuSans-30" x="127.246094"/>
      <use xlink:href="#DejaVuSans-30" x="190.869141"/>
     </g>
    </g>
   </g>
   <g id="xtick_11">
    <g id="line2d_13">
     <path d="M 167.666103 422.21758 
L 164.806815 424.386242 
" style="fill: none; stroke: #000000; stroke-width: 0.8; stroke-linecap: square"/>
    </g>
    <g id="text_13">
     <!-- 3000 -->
     <g transform="translate(148.408591 445.400406) scale(0.1 -0.1)">
      <use xlink:href="#DejaVuSans-33"/>
      <use xlink:href="#DejaVuSans-30" x="63.623047"/>
      <use xlink:href="#DejaVuSans-30" x="127.246094"/>
      <use xlink:href="#DejaVuSans-30" x="190.869141"/>
     </g>
    </g>
   </g>
   <g id="xtick_12">
    <g id="line2d_14">
     <path d="M 120.518159 416.743723 
L 117.552589 418.883057 
" style="fill: none; stroke: #000000; stroke-width: 0.8; stroke-linecap: square"/>
    </g>
    <g id="text_14">
     <!-- 4000 -->
     <g transform="translate(101.065351 439.792576) scale(0.1 -0.1)">
      <use xlink:href="#DejaVuSans-34"/>
      <use xlink:href="#DejaVuSans-30" x="63.623047"/>
      <use xlink:href="#DejaVuSans-30" x="127.246094"/>
      <use xlink:href="#DejaVuSans-30" x="190.869141"/>
     </g>
    </g>
   </g>
  </g>
  <g id="axis3d_3">
   <g id="line2d_15">
    <path d="M 99.76144 415.157921 
L 95.051284 193.234068 
" style="fill: none; stroke: #000000; stroke-width: 0.8; stroke-linecap: square"/>
   </g>
   <g id="text_15">
    <!-- x -->
    <g transform="translate(51.700622 313.445526) scale(0.1 -0.1)">
     <defs>
      <path id="DejaVuSans-78" d="M 3513 3500 
L 2247 1797 
L 3578 0 
L 2900 0 
L 1881 1375 
L 863 0 
L 184 0 
L 1544 1831 
L 300 3500 
L 978 3500 
L 1906 2253 
L 2834 3500 
L 3513 3500 
z
" transform="scale(0.015625)"/>
     </defs>
     <use xlink:href="#DejaVuSans-78"/>
    </g>
   </g>
   <g id="Line3DCollection_3">
    <path d="M 99.669421 410.822356 
L 212.54039 331.486292 
L 475.994641 358.463985 
" style="fill: none; stroke: #b0b0b0; stroke-width: 0.8"/>
    <path d="M 98.892912 374.23635 
L 212.246958 298.272752 
L 476.672234 324.096885 
" style="fill: none; stroke: #b0b0b0; stroke-width: 0.8"/>
    <path d="M 98.11018 337.357133 
L 211.951411 264.819736 
L 477.354897 289.4726 
" style="fill: none; stroke: #b0b0b0; stroke-width: 0.8"/>
    <path d="M 97.32115 300.181167 
L 211.653725 231.124642 
L 478.042689 254.58823 
" style="fill: none; stroke: #b0b0b0; stroke-width: 0.8"/>
    <path d="M 96.525746 262.704855 
L 211.353877 197.184836 
L 478.735667 219.440835 
" style="fill: none; stroke: #b0b0b0; stroke-width: 0.8"/>
    <path d="M 95.723889 224.924542 
L 211.051844 162.99764 
L 479.433889 184.027429 
" style="fill: none; stroke: #b0b0b0; stroke-width: 0.8"/>
   </g>
   <g id="xtick_13">
    <g id="line2d_16">
     <path d="M 100.671398 410.118075 
L 97.660136 412.234665 
" style="fill: none; stroke: #000000; stroke-width: 0.8; stroke-linecap: square"/>
    </g>
    <g id="text_16">
     <!-- 0 -->
     <g transform="translate(77.121793 421.11525) scale(0.1 -0.1)">
      <use xlink:href="#DejaVuSans-30"/>
     </g>
    </g>
   </g>
   <g id="xtick_14">
    <g id="line2d_17">
     <path d="M 99.899574 373.561741 
L 96.874212 375.589171 
" style="fill: none; stroke: #000000; stroke-width: 0.8; stroke-linecap: square"/>
    </g>
    <g id="text_17">
     <!-- 1000 -->
     <g transform="translate(66.721341 384.415767) scale(0.1 -0.1)">
      <use xlink:href="#DejaVuSans-31"/>
      <use xlink:href="#DejaVuSans-30" x="63.623047"/>
      <use xlink:href="#DejaVuSans-30" x="127.246094"/>
      <use xlink:href="#DejaVuSans-30" x="190.869141"/>
     </g>
    </g>
   </g>
   <g id="xtick_15">
    <g id="line2d_18">
     <path d="M 99.12157 336.712696 
L 96.081977 338.649465 
" style="fill: none; stroke: #000000; stroke-width: 0.8; stroke-linecap: square"/>
    </g>
    <g id="text_18">
     <!-- 2000 -->
     <g transform="translate(65.857749 347.421161) scale(0.1 -0.1)">
      <use xlink:href="#DejaVuSans-32"/>
      <use xlink:href="#DejaVuSans-30" x="63.623047"/>
      <use xlink:href="#DejaVuSans-30" x="127.246094"/>
      <use xlink:href="#DejaVuSans-30" x="190.869141"/>
     </g>
    </g>
   </g>
   <g id="xtick_16">
    <g id="line2d_19">
     <path d="M 98.337312 299.567408 
L 95.283356 301.411988 
" style="fill: none; stroke: #000000; stroke-width: 0.8; stroke-linecap: square"/>
    </g>
    <g id="text_19">
     <!-- 3000 -->
     <g transform="translate(64.987184 310.127857) scale(0.1 -0.1)">
      <use xlink:href="#DejaVuSans-33"/>
      <use xlink:href="#DejaVuSans-30" x="63.623047"/>
      <use xlink:href="#DejaVuSans-30" x="127.246094"/>
      <use xlink:href="#DejaVuSans-30" x="190.869141"/>
     </g>
    </g>
   </g>
   <g id="xtick_17">
    <g id="line2d_20">
     <path d="M 97.546723 262.122293 
L 94.478272 263.873127 
" style="fill: none; stroke: #000000; stroke-width: 0.8; stroke-linecap: square"/>
    </g>
    <g id="text_20">
     <!-- 4000 -->
     <g transform="translate(64.109562 272.532224) scale(0.1 -0.1)">
      <use xlink:href="#DejaVuSans-34"/>
      <use xlink:href="#DejaVuSans-30" x="63.623047"/>
      <use xlink:href="#DejaVuSans-30" x="127.246094"/>
      <use xlink:href="#DejaVuSans-30" x="190.869141"/>
     </g>
    </g>
   </g>
   <g id="xtick_18">
    <g id="line2d_21">
     <path d="M 96.749727 224.373704 
L 93.666645 226.029207 
" style="fill: none; stroke: #000000; stroke-width: 0.8; stroke-linecap: square"/>
    </g>
    <g id="text_21">
     <!-- 5000 -->
     <g transform="translate(63.224796 234.630569) scale(0.1 -0.1)">
      <defs>
       <path id="DejaVuSans-35" d="M 691 4666 
L 3169 4666 
L 3169 4134 
L 1269 4134 
L 1269 2991 
Q 1406 3038 1543 3061 
Q 1681 3084 1819 3084 
Q 2600 3084 3056 2656 
Q 3513 2228 3513 1497 
Q 3513 744 3044 326 
Q 2575 -91 1722 -91 
Q 1428 -91 1123 -41 
Q 819 9 494 109 
L 494 744 
Q 775 591 1075 516 
Q 1375 441 1709 441 
Q 2250 441 2565 725 
Q 2881 1009 2881 1497 
Q 2881 1984 2565 2268 
Q 2250 2553 1709 2553 
Q 1456 2553 1204 2497 
Q 953 2441 691 2322 
L 691 4666 
z
" transform="scale(0.015625)"/>
      </defs>
      <use xlink:href="#DejaVuSans-35"/>
      <use xlink:href="#DejaVuSans-30" x="63.623047"/>
      <use xlink:href="#DejaVuSans-30" x="127.246094"/>
      <use xlink:href="#DejaVuSans-30" x="190.869141"/>
     </g>
    </g>
   </g>
  </g>
  <g id="axes_1">
   <g id="line2d_22">
    <path d="M 294.40493 185.667135 
L 288.297805 190.231474 
L 282.459131 194.792121 
L 276.888264 199.346607 
L 271.584732 203.892269 
L 266.547981 208.426375 
L 261.77737 212.946122 
L 257.272167 217.448634 
L 253.031545 221.930962 
L 249.054571 226.390081 
L 245.340205 230.822892 
L 241.887293 235.226219 
L 238.694557 239.596808 
L 235.760593 243.931325 
L 233.083859 248.226361 
L 230.662671 252.478425 
L 228.495193 256.683948 
L 226.579432 260.839284 
L 224.913225 264.940705 
L 223.494236 268.98441 
L 222.319941 272.966518 
L 221.387625 276.883076 
L 220.694368 280.730058 
L 220.23704 284.503366 
L 220.012288 288.198838 
L 220.016529 291.812246 
L 220.245939 295.339303 
L 220.696443 298.775667 
L 221.363712 302.116949 
L 222.243144 305.358712 
L 223.329863 308.496485 
L 224.618711 311.525768 
L 226.104234 314.442037 
L 227.780684 317.240758 
L 229.642006 319.917393 
L 231.681836 322.467411 
L 233.893498 324.886299 
L 236.269997 327.169578 
L 238.781104 329.355815 
L 241.374989 331.529522 
L 244.024862 333.733819 
L 246.727444 335.967532 
L 249.479357 338.229528 
L 252.277123 340.518718 
L 255.117174 342.834062 
L 257.995852 345.174572 
L 260.909418 347.539315 
L 263.854058 349.927422 
L 266.825887 352.338084 
L 269.820959 354.770559 
L 272.835275 357.224176 
L 275.864787 359.698332 
L 278.905411 362.1925 
L 281.953034 364.706226 
L 285.003522 367.239129 
L 288.052728 369.790905 
L 291.096502 372.361324 
L 294.130701 374.95023 
L 297.151192 377.557541 
L 300.153867 380.183242 
L 303.134645 382.827391 
L 306.089481 385.490111 
L 309.014375 388.171589 
L 311.905376 390.87207 
L 314.728018 393.505554 
L 317.440537 395.974251 
L 320.028642 398.266696 
L 322.48232 400.383261 
L 324.791704 402.324463 
L 326.947092 404.090963 
L 328.938949 405.683548 
L 330.757919 407.103131 
L 332.39483 408.350742 
L 333.840702 409.427514 
L 335.086751 410.334685 
L 336.124392 411.073581 
L 336.945243 411.645615 
L 337.54113 412.052279 
L 337.904083 412.295135 
L 338.026344 412.37581 
" clip-path="url(#pcc8c4c931e)" style="fill: none; stroke: #1f77b4; stroke-width: 1.5; stroke-linecap: square"/>
   </g>
   <g id="line2d_23">
    <path d="M 314.315286 433.52304 
L 404.762804 352.855425 
" clip-path="url(#pcc8c4c931e)" style="fill: none; stroke-dasharray: 3.7,1.6; stroke-dashoffset: 0; stroke: #000000"/>
   </g>
   <g id="line2d_24">
    <path d="M 406.796896 420.074292 
L 135.935428 389.752852 
" clip-path="url(#pcc8c4c931e)" style="fill: none; stroke-dasharray: 3.7,1.6; stroke-dashoffset: 0; stroke: #000000"/>
   </g>
   <g id="Path3DCollection_1">
    <defs>
     <path id="mec3e4c25cb" d="M 0 1.581139 
C 0.419323 1.581139 0.821528 1.41454 1.118034 1.118034 
C 1.41454 0.821528 1.581139 0.419323 1.581139 0 
C 1.581139 -0.419323 1.41454 -0.821528 1.118034 -1.118034 
C 0.821528 -1.41454 0.419323 -1.581139 0 -1.581139 
C -0.419323 -1.581139 -0.821528 -1.41454 -1.118034 -1.118034 
C -1.41454 -0.821528 -1.581139 -0.419323 -1.581139 0 
C -1.581139 0.419323 -1.41454 0.821528 -1.118034 1.118034 
C -0.821528 1.41454 -0.419323 1.581139 0 1.581139 
z
" style="stroke: #008000"/>
    </defs>
    <g clip-path="url(#pcc8c4c931e)">
     <use xlink:href="#mec3e4c25cb" x="338.026344" y="412.37581" style="fill: #008000; stroke: #008000"/>
    </g>
   </g>
   <g id="text_22">
    <!-- fuel optimal trajectory -->
    <g transform="translate(221.030625 51.6) scale(0.12 -0.12)">
     <defs>
      <path id="DejaVuSans-66" d="M 2375 4863 
L 2375 4384 
L 1825 4384 
Q 1516 4384 1395 4259 
Q 1275 4134 1275 3809 
L 1275 3500 
L 2222 3500 
L 2222 3053 
L 1275 3053 
L 1275 0 
L 697 0 
L 697 3053 
L 147 3053 
L 147 3500 
L 697 3500 
L 697 3744 
Q 697 4328 969 4595 
Q 1241 4863 1831 4863 
L 2375 4863 
z
" transform="scale(0.015625)"/>
      <path id="DejaVuSans-75" d="M 544 1381 
L 544 3500 
L 1119 3500 
L 1119 1403 
Q 1119 906 1312 657 
Q 1506 409 1894 409 
Q 2359 409 2629 706 
Q 2900 1003 2900 1516 
L 2900 3500 
L 3475 3500 
L 3475 0 
L 2900 0 
L 2900 538 
Q 2691 219 2414 64 
Q 2138 -91 1772 -91 
Q 1169 -91 856 284 
Q 544 659 544 1381 
z
M 1991 3584 
L 1991 3584 
z
" transform="scale(0.015625)"/>
      <path id="DejaVuSans-65" d="M 3597 1894 
L 3597 1613 
L 953 1613 
Q 991 1019 1311 708 
Q 1631 397 2203 397 
Q 2534 397 2845 478 
Q 3156 559 3463 722 
L 3463 178 
Q 3153 47 2828 -22 
Q 2503 -91 2169 -91 
Q 1331 -91 842 396 
Q 353 884 353 1716 
Q 353 2575 817 3079 
Q 1281 3584 2069 3584 
Q 2775 3584 3186 3129 
Q 3597 2675 3597 1894 
z
M 3022 2063 
Q 3016 2534 2758 2815 
Q 2500 3097 2075 3097 
Q 1594 3097 1305 2825 
Q 1016 2553 972 2059 
L 3022 2063 
z
" transform="scale(0.015625)"/>
      <path id="DejaVuSans-6c" d="M 603 4863 
L 1178 4863 
L 1178 0 
L 603 0 
L 603 4863 
z
" transform="scale(0.015625)"/>
      <path id="DejaVuSans-20" transform="scale(0.015625)"/>
      <path id="DejaVuSans-6f" d="M 1959 3097 
Q 1497 3097 1228 2736 
Q 959 2375 959 1747 
Q 959 1119 1226 758 
Q 1494 397 1959 397 
Q 2419 397 2687 759 
Q 2956 1122 2956 1747 
Q 2956 2369 2687 2733 
Q 2419 3097 1959 3097 
z
M 1959 3584 
Q 2709 3584 3137 3096 
Q 3566 2609 3566 1747 
Q 3566 888 3137 398 
Q 2709 -91 1959 -91 
Q 1206 -91 779 398 
Q 353 888 353 1747 
Q 353 2609 779 3096 
Q 1206 3584 1959 3584 
z
" transform="scale(0.015625)"/>
      <path id="DejaVuSans-70" d="M 1159 525 
L 1159 -1331 
L 581 -1331 
L 581 3500 
L 1159 3500 
L 1159 2969 
Q 1341 3281 1617 3432 
Q 1894 3584 2278 3584 
Q 2916 3584 3314 3078 
Q 3713 2572 3713 1747 
Q 3713 922 3314 415 
Q 2916 -91 2278 -91 
Q 1894 -91 1617 61 
Q 1341 213 1159 525 
z
M 3116 1747 
Q 3116 2381 2855 2742 
Q 2594 3103 2138 3103 
Q 1681 3103 1420 2742 
Q 1159 2381 1159 1747 
Q 1159 1113 1420 752 
Q 1681 391 2138 391 
Q 2594 391 2855 752 
Q 3116 1113 3116 1747 
z
" transform="scale(0.015625)"/>
      <path id="DejaVuSans-74" d="M 1172 4494 
L 1172 3500 
L 2356 3500 
L 2356 3053 
L 1172 3053 
L 1172 1153 
Q 1172 725 1289 603 
Q 1406 481 1766 481 
L 2356 481 
L 2356 0 
L 1766 0 
Q 1100 0 847 248 
Q 594 497 594 1153 
L 594 3053 
L 172 3053 
L 172 3500 
L 594 3500 
L 594 4494 
L 1172 4494 
z
" transform="scale(0.015625)"/>
      <path id="DejaVuSans-69" d="M 603 3500 
L 1178 3500 
L 1178 0 
L 603 0 
L 603 3500 
z
M 603 4863 
L 1178 4863 
L 1178 4134 
L 603 4134 
L 603 4863 
z
" transform="scale(0.015625)"/>
      <path id="DejaVuSans-6d" d="M 3328 2828 
Q 3544 3216 3844 3400 
Q 4144 3584 4550 3584 
Q 5097 3584 5394 3201 
Q 5691 2819 5691 2113 
L 5691 0 
L 5113 0 
L 5113 2094 
Q 5113 2597 4934 2840 
Q 4756 3084 4391 3084 
Q 3944 3084 3684 2787 
Q 3425 2491 3425 1978 
L 3425 0 
L 2847 0 
L 2847 2094 
Q 2847 2600 2669 2842 
Q 2491 3084 2119 3084 
Q 1678 3084 1418 2786 
Q 1159 2488 1159 1978 
L 1159 0 
L 581 0 
L 581 3500 
L 1159 3500 
L 1159 2956 
Q 1356 3278 1631 3431 
Q 1906 3584 2284 3584 
Q 2666 3584 2933 3390 
Q 3200 3197 3328 2828 
z
" transform="scale(0.015625)"/>
      <path id="DejaVuSans-61" d="M 2194 1759 
Q 1497 1759 1228 1600 
Q 959 1441 959 1056 
Q 959 750 1161 570 
Q 1363 391 1709 391 
Q 2188 391 2477 730 
Q 2766 1069 2766 1631 
L 2766 1759 
L 2194 1759 
z
M 3341 1997 
L 3341 0 
L 2766 0 
L 2766 531 
Q 2569 213 2275 61 
Q 1981 -91 1556 -91 
Q 1019 -91 701 211 
Q 384 513 384 1019 
Q 384 1609 779 1909 
Q 1175 2209 1959 2209 
L 2766 2209 
L 2766 2266 
Q 2766 2663 2505 2880 
Q 2244 3097 1772 3097 
Q 1472 3097 1187 3025 
Q 903 2953 641 2809 
L 641 3341 
Q 956 3463 1253 3523 
Q 1550 3584 1831 3584 
Q 2591 3584 2966 3190 
Q 3341 2797 3341 1997 
z
" transform="scale(0.015625)"/>
      <path id="DejaVuSans-72" d="M 2631 2963 
Q 2534 3019 2420 3045 
Q 2306 3072 2169 3072 
Q 1681 3072 1420 2755 
Q 1159 2438 1159 1844 
L 1159 0 
L 581 0 
L 581 3500 
L 1159 3500 
L 1159 2956 
Q 1341 3275 1631 3429 
Q 1922 3584 2338 3584 
Q 2397 3584 2469 3576 
Q 2541 3569 2628 3553 
L 2631 2963 
z
" transform="scale(0.015625)"/>
      <path id="DejaVuSans-6a" d="M 603 3500 
L 1178 3500 
L 1178 -63 
Q 1178 -731 923 -1031 
Q 669 -1331 103 -1331 
L -116 -1331 
L -116 -844 
L 38 -844 
Q 366 -844 484 -692 
Q 603 -541 603 -63 
L 603 3500 
z
M 603 4863 
L 1178 4863 
L 1178 4134 
L 603 4134 
L 603 4863 
z
" transform="scale(0.015625)"/>
      <path id="DejaVuSans-63" d="M 3122 3366 
L 3122 2828 
Q 2878 2963 2633 3030 
Q 2388 3097 2138 3097 
Q 1578 3097 1268 2742 
Q 959 2388 959 1747 
Q 959 1106 1268 751 
Q 1578 397 2138 397 
Q 2388 397 2633 464 
Q 2878 531 3122 666 
L 3122 134 
Q 2881 22 2623 -34 
Q 2366 -91 2075 -91 
Q 1284 -91 818 406 
Q 353 903 353 1747 
Q 353 2603 823 3093 
Q 1294 3584 2113 3584 
Q 2378 3584 2631 3529 
Q 2884 3475 3122 3366 
z
" transform="scale(0.015625)"/>
     </defs>
     <use xlink:href="#DejaVuSans-66"/>
     <use xlink:href="#DejaVuSans-75" x="35.205078"/>
     <use xlink:href="#DejaVuSans-65" x="98.583984"/>
     <use xlink:href="#DejaVuSans-6c" x="160.107422"/>
     <use xlink:href="#DejaVuSans-20" x="187.890625"/>
     <use xlink:href="#DejaVuSans-6f" x="219.677734"/>
     <use xlink:href="#DejaVuSans-70" x="280.859375"/>
     <use xlink:href="#DejaVuSans-74" x="344.335938"/>
     <use xlink:href="#DejaVuSans-69" x="383.544922"/>
     <use xlink:href="#DejaVuSans-6d" x="411.328125"/>
     <use xlink:href="#DejaVuSans-61" x="508.740234"/>
     <use xlink:href="#DejaVuSans-6c" x="570.019531"/>
     <use xlink:href="#DejaVuSans-20" x="597.802734"/>
     <use xlink:href="#DejaVuSans-74" x="629.589844"/>
     <use xlink:href="#DejaVuSans-72" x="668.798828"/>
     <use xlink:href="#DejaVuSans-61" x="709.912109"/>
     <use xlink:href="#DejaVuSans-6a" x="771.191406"/>
     <use xlink:href="#DejaVuSans-65" x="798.974609"/>
     <use xlink:href="#DejaVuSans-63" x="860.498047"/>
     <use xlink:href="#DejaVuSans-74" x="915.478516"/>
     <use xlink:href="#DejaVuSans-6f" x="954.6875"/>
     <use xlink:href="#DejaVuSans-72" x="1015.869141"/>
     <use xlink:href="#DejaVuSans-79" x="1056.982422"/>
    </g>
   </g>
   <g id="Line3DCollection_4">
    <path d="M 294.40493 185.667135 
L 266.704686 199.776015 
" clip-path="url(#pcc8c4c931e)" style="fill: none; stroke: #ff0000; stroke-width: 0.5"/>
    <path d="M 288.297805 190.231474 
L 260.72382 204.57747 
" clip-path="url(#pcc8c4c931e)" style="fill: none; stroke: #ff0000; stroke-width: 0.5"/>
    <path d="M 282.459131 194.792121 
L 254.96995 209.406792 
" clip-path="url(#pcc8c4c931e)" style="fill: none; stroke: #ff0000; stroke-width: 0.5"/>
    <path d="M 276.888264 199.346607 
L 249.491839 214.236441 
" clip-path="url(#pcc8c4c931e)" style="fill: none; stroke: #ff0000; stroke-width: 0.5"/>
    <path d="M 271.584732 203.892269 
L 244.289476 219.06387 
" clip-path="url(#pcc8c4c931e)" style="fill: none; stroke: #ff0000; stroke-width: 0.5"/>
    <path d="M 266.547981 208.426375 
L 239.362814 223.886485 
" clip-path="url(#pcc8c4c931e)" style="fill: none; stroke: #ff0000; stroke-width: 0.5"/>
    <path d="M 261.77737 212.946122 
L 234.711732 228.701597 
" clip-path="url(#pcc8c4c931e)" style="fill: none; stroke: #ff0000; stroke-width: 0.5"/>
    <path d="M 257.272167 217.448634 
L 230.336033 233.506429 
" clip-path="url(#pcc8c4c931e)" style="fill: none; stroke: #ff0000; stroke-width: 0.5"/>
    <path d="M 253.031545 221.930962 
L 226.235445 238.298118 
" clip-path="url(#pcc8c4c931e)" style="fill: none; stroke: #ff0000; stroke-width: 0.5"/>
    <path d="M 249.054571 226.390081 
L 222.409623 243.073717 
" clip-path="url(#pcc8c4c931e)" style="fill: none; stroke: #ff0000; stroke-width: 0.5"/>
    <path d="M 245.340205 230.822892 
L 218.858142 247.830195 
" clip-path="url(#pcc8c4c931e)" style="fill: none; stroke: #ff0000; stroke-width: 0.5"/>
    <path d="M 241.887293 235.226219 
L 215.580496 252.564435 
" clip-path="url(#pcc8c4c931e)" style="fill: none; stroke: #ff0000; stroke-width: 0.5"/>
    <path d="M 238.694557 239.596808 
L 212.576083 257.273223 
" clip-path="url(#pcc8c4c931e)" style="fill: none; stroke: #ff0000; stroke-width: 0.5"/>
    <path d="M 235.760593 243.931325 
L 209.844191 261.953245 
" clip-path="url(#pcc8c4c931e)" style="fill: none; stroke: #ff0000; stroke-width: 0.5"/>
    <path d="M 233.083859 248.226361 
L 207.383994 266.601079 
" clip-path="url(#pcc8c4c931e)" style="fill: none; stroke: #ff0000; stroke-width: 0.5"/>
    <path d="M 230.662671 252.478425 
L 205.194548 271.213203 
" clip-path="url(#pcc8c4c931e)" style="fill: none; stroke: #ff0000; stroke-width: 0.5"/>
    <path d="M 228.495193 256.683948 
L 203.274785 275.785991 
" clip-path="url(#pcc8c4c931e)" style="fill: none; stroke: #ff0000; stroke-width: 0.5"/>
    <path d="M 226.579432 260.839284 
L 201.623508 280.315714 
" clip-path="url(#pcc8c4c931e)" style="fill: none; stroke: #ff0000; stroke-width: 0.5"/>
    <path d="M 224.913225 264.940705 
L 200.239381 284.798537 
" clip-path="url(#pcc8c4c931e)" style="fill: none; stroke: #ff0000; stroke-width: 0.5"/>
    <path d="M 223.494236 268.98441 
L 199.120908 289.230511 
" clip-path="url(#pcc8c4c931e)" style="fill: none; stroke: #ff0000; stroke-width: 0.5"/>
    <path d="M 222.319941 272.966518 
L 198.266403 293.607554 
" clip-path="url(#pcc8c4c931e)" style="fill: none; stroke: #ff0000; stroke-width: 0.5"/>
    <path d="M 221.387625 276.883076 
L 197.673994 297.925464 
" clip-path="url(#pcc8c4c931e)" style="fill: none; stroke: #ff0000; stroke-width: 0.5"/>
    <path d="M 220.694368 280.730058 
L 197.341621 302.179929 
" clip-path="url(#pcc8c4c931e)" style="fill: none; stroke: #ff0000; stroke-width: 0.5"/>
    <path d="M 220.23704 284.503366 
L 197.267046 306.366534 
" clip-path="url(#pcc8c4c931e)" style="fill: none; stroke: #ff0000; stroke-width: 0.5"/>
    <path d="M 220.012288 288.198838 
L 197.447815 310.48075 
" clip-path="url(#pcc8c4c931e)" style="fill: none; stroke: #ff0000; stroke-width: 0.5"/>
    <path d="M 220.016529 291.812246 
L 197.881185 314.517897 
" clip-path="url(#pcc8c4c931e)" style="fill: none; stroke: #ff0000; stroke-width: 0.5"/>
    <path d="M 220.245939 295.339303 
L 198.56414 318.473164 
" clip-path="url(#pcc8c4c931e)" style="fill: none; stroke: #ff0000; stroke-width: 0.5"/>
    <path d="M 220.696443 298.775667 
L 199.493441 322.341659 
" clip-path="url(#pcc8c4c931e)" style="fill: none; stroke: #ff0000; stroke-width: 0.5"/>
    <path d="M 221.363712 302.116949 
L 200.665608 326.118399 
" clip-path="url(#pcc8c4c931e)" style="fill: none; stroke: #ff0000; stroke-width: 0.5"/>
    <path d="M 222.243144 305.358712 
L 202.07673 329.798227 
" clip-path="url(#pcc8c4c931e)" style="fill: none; stroke: #ff0000; stroke-width: 0.5"/>
    <path d="M 223.329863 308.496485 
L 203.722593 333.375898 
" clip-path="url(#pcc8c4c931e)" style="fill: none; stroke: #ff0000; stroke-width: 0.5"/>
    <path d="M 224.618711 311.525768 
L 205.598776 336.846136 
" clip-path="url(#pcc8c4c931e)" style="fill: none; stroke: #ff0000; stroke-width: 0.5"/>
    <path d="M 226.104234 314.442037 
L 207.700267 340.203476 
" clip-path="url(#pcc8c4c931e)" style="fill: none; stroke: #ff0000; stroke-width: 0.5"/>
    <path d="M 227.780684 317.240758 
L 210.021906 343.442475 
" clip-path="url(#pcc8c4c931e)" style="fill: none; stroke: #ff0000; stroke-width: 0.5"/>
    <path d="M 229.642006 319.917393 
L 212.557796 346.557481 
" clip-path="url(#pcc8c4c931e)" style="fill: none; stroke: #ff0000; stroke-width: 0.5"/>
    <path d="M 231.681836 322.467411 
L 215.302192 349.543027 
" clip-path="url(#pcc8c4c931e)" style="fill: none; stroke: #ff0000; stroke-width: 0.5"/>
    <path d="M 233.893498 324.886299 
L 218.248184 352.392568 
" clip-path="url(#pcc8c4c931e)" style="fill: none; stroke: #ff0000; stroke-width: 0.5"/>
    <path d="M 236.269997 327.169578 
L 225.960889 346.520828 
" clip-path="url(#pcc8c4c931e)" style="fill: none; stroke: #ff0000; stroke-width: 0.5"/>
    <path d="M 238.781104 329.355815 
L 233.502216 339.981046 
" clip-path="url(#pcc8c4c931e)" style="fill: none; stroke: #ff0000; stroke-width: 0.5"/>
    <path d="M 241.374989 331.529522 
L 236.41764 342.281163 
" clip-path="url(#pcc8c4c931e)" style="fill: none; stroke: #ff0000; stroke-width: 0.5"/>
    <path d="M 244.024862 333.733819 
L 239.398384 344.607539 
" clip-path="url(#pcc8c4c931e)" style="fill: none; stroke: #ff0000; stroke-width: 0.5"/>
    <path d="M 246.727444 335.967532 
L 242.440821 346.958553 
" clip-path="url(#pcc8c4c931e)" style="fill: none; stroke: #ff0000; stroke-width: 0.5"/>
    <path d="M 249.479357 338.229528 
L 245.541164 349.332643 
" clip-path="url(#pcc8c4c931e)" style="fill: none; stroke: #ff0000; stroke-width: 0.5"/>
    <path d="M 252.277123 340.518718 
L 248.695475 351.728301 
" clip-path="url(#pcc8c4c931e)" style="fill: none; stroke: #ff0000; stroke-width: 0.5"/>
    <path d="M 255.117174 342.834062 
L 251.89966 354.144091 
" clip-path="url(#pcc8c4c931e)" style="fill: none; stroke: #ff0000; stroke-width: 0.5"/>
    <path d="M 257.995852 345.174572 
L 255.149483 356.57865 
" clip-path="url(#pcc8c4c931e)" style="fill: none; stroke: #ff0000; stroke-width: 0.5"/>
    <path d="M 260.909418 347.539315 
L 258.440572 359.030704 
" clip-path="url(#pcc8c4c931e)" style="fill: none; stroke: #ff0000; stroke-width: 0.5"/>
    <path d="M 263.854058 349.927422 
L 261.76843 361.499069 
" clip-path="url(#pcc8c4c931e)" style="fill: none; stroke: #ff0000; stroke-width: 0.5"/>
    <path d="M 266.825887 352.338084 
L 265.128448 363.982664 
" clip-path="url(#pcc8c4c931e)" style="fill: none; stroke: #ff0000; stroke-width: 0.5"/>
    <path d="M 269.820959 354.770559 
L 268.51592 366.480516 
" clip-path="url(#pcc8c4c931e)" style="fill: none; stroke: #ff0000; stroke-width: 0.5"/>
    <path d="M 272.835275 357.224176 
L 271.926053 368.991766 
" clip-path="url(#pcc8c4c931e)" style="fill: none; stroke: #ff0000; stroke-width: 0.5"/>
    <path d="M 275.864787 359.698332 
L 275.35399 371.515673 
" clip-path="url(#pcc8c4c931e)" style="fill: none; stroke: #ff0000; stroke-width: 0.5"/>
    <path d="M 278.905411 362.1925 
L 278.79482 374.051617 
" clip-path="url(#pcc8c4c931e)" style="fill: none; stroke: #ff0000; stroke-width: 0.5"/>
    <path d="M 281.953034 364.706226 
L 282.243598 376.599102 
" clip-path="url(#pcc8c4c931e)" style="fill: none; stroke: #ff0000; stroke-width: 0.5"/>
    <path d="M 285.003522 367.239129 
L 285.695364 379.157757 
" clip-path="url(#pcc8c4c931e)" style="fill: none; stroke: #ff0000; stroke-width: 0.5"/>
    <path d="M 288.052728 369.790905 
L 289.145155 381.727333 
" clip-path="url(#pcc8c4c931e)" style="fill: none; stroke: #ff0000; stroke-width: 0.5"/>
    <path d="M 291.096502 372.361324 
L 292.588025 384.307705 
" clip-path="url(#pcc8c4c931e)" style="fill: none; stroke: #ff0000; stroke-width: 0.5"/>
    <path d="M 294.130701 374.95023 
L 296.019062 386.898865 
" clip-path="url(#pcc8c4c931e)" style="fill: none; stroke: #ff0000; stroke-width: 0.5"/>
    <path d="M 297.151192 377.557541 
L 299.433399 389.50092 
" clip-path="url(#pcc8c4c931e)" style="fill: none; stroke: #ff0000; stroke-width: 0.5"/>
    <path d="M 300.153867 380.183242 
L 302.826232 392.114085 
" clip-path="url(#pcc8c4c931e)" style="fill: none; stroke: #ff0000; stroke-width: 0.5"/>
    <path d="M 303.134645 382.827391 
L 306.192829 394.738681 
" clip-path="url(#pcc8c4c931e)" style="fill: none; stroke: #ff0000; stroke-width: 0.5"/>
    <path d="M 306.089481 385.490111 
L 309.528546 397.375125 
" clip-path="url(#pcc8c4c931e)" style="fill: none; stroke: #ff0000; stroke-width: 0.5"/>
    <path d="M 309.014375 388.171589 
L 312.828828 400.023944 
" clip-path="url(#pcc8c4c931e)" style="fill: none; stroke: #ff0000; stroke-width: 0.5"/>
    <path d="M 311.905376 390.87207 
L 322.205407 419.955552 
" clip-path="url(#pcc8c4c931e)" style="fill: none; stroke: #ff0000; stroke-width: 0.5"/>
    <path d="M 314.728018 393.505554 
L 326.854042 424.893206 
" clip-path="url(#pcc8c4c931e)" style="fill: none; stroke: #ff0000; stroke-width: 0.5"/>
    <path d="M 317.440537 395.974251 
L 330.551073 427.311803 
" clip-path="url(#pcc8c4c931e)" style="fill: none; stroke: #ff0000; stroke-width: 0.5"/>
    <path d="M 320.028642 398.266696 
L 334.109687 429.540308 
" clip-path="url(#pcc8c4c931e)" style="fill: none; stroke: #ff0000; stroke-width: 0.5"/>
    <path d="M 322.48232 400.383261 
L 337.518986 431.579952 
" clip-path="url(#pcc8c4c931e)" style="fill: none; stroke: #ff0000; stroke-width: 0.5"/>
    <path d="M 324.791704 402.324463 
L 340.768345 433.432112 
" clip-path="url(#pcc8c4c931e)" style="fill: none; stroke: #ff0000; stroke-width: 0.5"/>
    <path d="M 326.947092 404.090963 
L 343.84742 435.098307 
" clip-path="url(#pcc8c4c931e)" style="fill: none; stroke: #ff0000; stroke-width: 0.5"/>
    <path d="M 328.938949 405.683548 
L 346.746152 436.58018 
" clip-path="url(#pcc8c4c931e)" style="fill: none; stroke: #ff0000; stroke-width: 0.5"/>
    <path d="M 330.757919 407.103131 
L 349.454771 437.879482 
" clip-path="url(#pcc8c4c931e)" style="fill: none; stroke: #ff0000; stroke-width: 0.5"/>
    <path d="M 332.39483 408.350742 
L 351.963796 438.998063 
" clip-path="url(#pcc8c4c931e)" style="fill: none; stroke: #ff0000; stroke-width: 0.5"/>
    <path d="M 333.840702 409.427514 
L 354.264031 439.937853 
" clip-path="url(#pcc8c4c931e)" style="fill: none; stroke: #ff0000; stroke-width: 0.5"/>
    <path d="M 335.086751 410.334685 
L 356.346564 440.700856 
" clip-path="url(#pcc8c4c931e)" style="fill: none; stroke: #ff0000; stroke-width: 0.5"/>
    <path d="M 336.124392 411.073581 
L 358.202761 441.289136 
" clip-path="url(#pcc8c4c931e)" style="fill: none; stroke: #ff0000; stroke-width: 0.5"/>
    <path d="M 336.945243 411.645615 
L 359.82426 441.704811 
" clip-path="url(#pcc8c4c931e)" style="fill: none; stroke: #ff0000; stroke-width: 0.5"/>
    <path d="M 337.54113 412.052279 
L 361.202966 441.950038 
" clip-path="url(#pcc8c4c931e)" style="fill: none; stroke: #ff0000; stroke-width: 0.5"/>
    <path d="M 337.904083 412.295135 
L 362.331051 442.027014 
" clip-path="url(#pcc8c4c931e)" style="fill: none; stroke: #ff0000; stroke-width: 0.5"/>
    <path d="M 294.40493 185.667135 
L 292.230605 187.561055 
" clip-path="url(#pcc8c4c931e)" style="fill: none; stroke: #ff0000; stroke-width: 0.5"/>
    <path d="M 294.40493 185.667135 
L 291.219107 186.503281 
" clip-path="url(#pcc8c4c931e)" style="fill: none; stroke: #ff0000; stroke-width: 0.5"/>
    <path d="M 288.297805 190.231474 
L 286.144101 192.145586 
" clip-path="url(#pcc8c4c931e)" style="fill: none; stroke: #ff0000; stroke-width: 0.5"/>
    <path d="M 288.297805 190.231474 
L 285.115829 191.093292 
" clip-path="url(#pcc8c4c931e)" style="fill: none; stroke: #ff0000; stroke-width: 0.5"/>
    <path d="M 282.459131 194.792121 
L 280.323123 196.73024 
" clip-path="url(#pcc8c4c931e)" style="fill: none; stroke: #ff0000; stroke-width: 0.5"/>
    <path d="M 282.459131 194.792121 
L 279.275891 195.681907 
" clip-path="url(#pcc8c4c931e)" style="fill: none; stroke: #ff0000; stroke-width: 0.5"/>
    <path d="M 276.888264 199.346607 
L 274.770916 201.309172 
" clip-path="url(#pcc8c4c931e)" style="fill: none; stroke: #ff0000; stroke-width: 0.5"/>
    <path d="M 276.888264 199.346607 
L 273.70434 200.265176 
" clip-path="url(#pcc8c4c931e)" style="fill: none; stroke: #ff0000; stroke-width: 0.5"/>
    <path d="M 271.584732 203.892269 
L 269.487052 205.879722 
" clip-path="url(#pcc8c4c931e)" style="fill: none; stroke: #ff0000; stroke-width: 0.5"/>
    <path d="M 271.584732 203.892269 
L 268.400744 204.840456 
" clip-path="url(#pcc8c4c931e)" style="fill: none; stroke: #ff0000; stroke-width: 0.5"/>
    <path d="M 266.547981 208.426375 
L 264.471031 210.439156 
" clip-path="url(#pcc8c4c931e)" style="fill: none; stroke: #ff0000; stroke-width: 0.5"/>
    <path d="M 266.547981 208.426375 
L 263.364595 209.405041 
" clip-path="url(#pcc8c4c931e)" style="fill: none; stroke: #ff0000; stroke-width: 0.5"/>
    <path d="M 261.77737 212.946122 
L 259.722265 214.984672 
" clip-path="url(#pcc8c4c931e)" style="fill: none; stroke: #ff0000; stroke-width: 0.5"/>
    <path d="M 261.77737 212.946122 
L 258.595303 213.956151 
" clip-path="url(#pcc8c4c931e)" style="fill: none; stroke: #ff0000; stroke-width: 0.5"/>
    <path d="M 257.272167 217.448634 
L 255.240073 219.51339 
" clip-path="url(#pcc8c4c931e)" style="fill: none; stroke: #ff0000; stroke-width: 0.5"/>
    <path d="M 257.272167 217.448634 
L 254.092185 218.490931 
" clip-path="url(#pcc8c4c931e)" style="fill: none; stroke: #ff0000; stroke-width: 0.5"/>
    <path d="M 253.031545 221.930962 
L 251.023684 224.022356 
" clip-path="url(#pcc8c4c931e)" style="fill: none; stroke: #ff0000; stroke-width: 0.5"/>
    <path d="M 253.031545 221.930962 
L 249.854466 223.006454 
" clip-path="url(#pcc8c4c931e)" style="fill: none; stroke: #ff0000; stroke-width: 0.5"/>
    <path d="M 249.054571 226.390081 
L 247.07222 228.508539 
" clip-path="url(#pcc8c4c931e)" style="fill: none; stroke: #ff0000; stroke-width: 0.5"/>
    <path d="M 249.054571 226.390081 
L 245.881272 227.499718 
" clip-path="url(#pcc8c4c931e)" style="fill: none; stroke: #ff0000; stroke-width: 0.5"/>
    <path d="M 245.340205 230.822892 
L 243.384703 232.968831 
" clip-path="url(#pcc8c4c931e)" style="fill: none; stroke: #ff0000; stroke-width: 0.5"/>
    <path d="M 245.340205 230.822892 
L 242.171623 231.967643 
" clip-path="url(#pcc8c4c931e)" style="fill: none; stroke: #ff0000; stroke-width: 0.5"/>
    <path d="M 241.887293 235.226219 
L 239.960037 237.400045 
" clip-path="url(#pcc8c4c931e)" style="fill: none; stroke: #ff0000; stroke-width: 0.5"/>
    <path d="M 241.887293 235.226219 
L 238.724426 236.407076 
" clip-path="url(#pcc8c4c931e)" style="fill: none; stroke: #ff0000; stroke-width: 0.5"/>
    <path d="M 238.694557 239.596808 
L 236.797011 241.798915 
" clip-path="url(#pcc8c4c931e)" style="fill: none; stroke: #ff0000; stroke-width: 0.5"/>
    <path d="M 238.694557 239.596808 
L 235.538474 240.814782 
" clip-path="url(#pcc8c4c931e)" style="fill: none; stroke: #ff0000; stroke-width: 0.5"/>
    <path d="M 235.760593 243.931325 
L 233.894281 246.162092 
" clip-path="url(#pcc8c4c931e)" style="fill: none; stroke: #ff0000; stroke-width: 0.5"/>
    <path d="M 235.760593 243.931325 
L 232.612432 245.187448 
" clip-path="url(#pcc8c4c931e)" style="fill: none; stroke: #ff0000; stroke-width: 0.5"/>
    <path d="M 233.083859 248.226361 
L 231.250371 250.486146 
" clip-path="url(#pcc8c4c931e)" style="fill: none; stroke: #ff0000; stroke-width: 0.5"/>
    <path d="M 233.083859 248.226361 
L 229.944832 249.52168 
" clip-path="url(#pcc8c4c931e)" style="fill: none; stroke: #ff0000; stroke-width: 0.5"/>
    <path d="M 230.662671 252.478425 
L 228.863662 254.767564 
" clip-path="url(#pcc8c4c931e)" style="fill: none; stroke: #ff0000; stroke-width: 0.5"/>
    <path d="M 230.662671 252.478425 
L 227.534069 253.814004 
" clip-path="url(#pcc8c4c931e)" style="fill: none; stroke: #ff0000; stroke-width: 0.5"/>
    <path d="M 228.495193 256.683948 
L 226.732385 259.002751 
" clip-path="url(#pcc8c4c931e)" style="fill: none; stroke: #ff0000; stroke-width: 0.5"/>
    <path d="M 228.495193 256.683948 
L 225.378388 258.060866 
" clip-path="url(#pcc8c4c931e)" style="fill: none; stroke: #ff0000; stroke-width: 0.5"/>
    <path d="M 226.579432 260.839284 
L 224.854613 263.188031 
" clip-path="url(#pcc8c4c931e)" style="fill: none; stroke: #ff0000; stroke-width: 0.5"/>
    <path d="M 226.579432 260.839284 
L 223.475883 262.25863 
" clip-path="url(#pcc8c4c931e)" style="fill: none; stroke: #ff0000; stroke-width: 0.5"/>
    <path d="M 224.913225 264.940705 
L 223.228252 267.319645 
" clip-path="url(#pcc8c4c931e)" style="fill: none; stroke: #ff0000; stroke-width: 0.5"/>
    <path d="M 224.913225 264.940705 
L 221.824483 266.403584 
" clip-path="url(#pcc8c4c931e)" style="fill: none; stroke: #ff0000; stroke-width: 0.5"/>
    <path d="M 223.494236 268.98441 
L 221.851033 271.393752 
" clip-path="url(#pcc8c4c931e)" style="fill: none; stroke: #ff0000; stroke-width: 0.5"/>
    <path d="M 223.494236 268.98441 
L 220.421946 270.491933 
" clip-path="url(#pcc8c4c931e)" style="fill: none; stroke: #ff0000; stroke-width: 0.5"/>
    <path d="M 222.319941 272.966518 
L 220.720495 275.406428 
" clip-path="url(#pcc8c4c931e)" style="fill: none; stroke: #ff0000; stroke-width: 0.5"/>
    <path d="M 222.319941 272.966518 
L 219.265848 274.519802 
" clip-path="url(#pcc8c4c931e)" style="fill: none; stroke: #ff0000; stroke-width: 0.5"/>
    <path d="M 221.387625 276.883076 
L 219.833984 279.353669 
" clip-path="url(#pcc8c4c931e)" style="fill: none; stroke: #ff0000; stroke-width: 0.5"/>
    <path d="M 221.387625 276.883076 
L 218.353576 278.483239 
" clip-path="url(#pcc8c4c931e)" style="fill: none; stroke: #ff0000; stroke-width: 0.5"/>
    <path d="M 220.694368 280.730058 
L 219.188639 283.231394 
" clip-path="url(#pcc8c4c931e)" style="fill: none; stroke: #ff0000; stroke-width: 0.5"/>
    <path d="M 220.694368 280.730058 
L 217.682318 282.378216 
" clip-path="url(#pcc8c4c931e)" style="fill: none; stroke: #ff0000; stroke-width: 0.5"/>
    <path d="M 220.23704 284.503366 
L 218.781387 287.035449 
" clip-path="url(#pcc8c4c931e)" style="fill: none; stroke: #ff0000; stroke-width: 0.5"/>
    <path d="M 220.23704 284.503366 
L 217.249057 286.200634 
" clip-path="url(#pcc8c4c931e)" style="fill: none; stroke: #ff0000; stroke-width: 0.5"/>
    <path d="M 220.012288 288.198838 
L 218.608929 290.761601 
" clip-path="url(#pcc8c4c931e)" style="fill: none; stroke: #ff0000; stroke-width: 0.5"/>
    <path d="M 220.012288 288.198838 
L 217.050561 289.946323 
" clip-path="url(#pcc8c4c931e)" style="fill: none; stroke: #ff0000; stroke-width: 0.5"/>
    <path d="M 220.016529 291.812246 
L 218.667723 294.405551 
" clip-path="url(#pcc8c4c931e)" style="fill: none; stroke: #ff0000; stroke-width: 0.5"/>
    <path d="M 220.016529 291.812246 
L 217.083367 293.611043 
" clip-path="url(#pcc8c4c931e)" style="fill: none; stroke: #ff0000; stroke-width: 0.5"/>
    <path d="M 220.245939 295.339303 
L 218.953975 297.962929 
" clip-path="url(#pcc8c4c931e)" style="fill: none; stroke: #ff0000; stroke-width: 0.5"/>
    <path d="M 220.245939 295.339303 
L 217.343776 297.190488 
" clip-path="url(#pcc8c4c931e)" style="fill: none; stroke: #ff0000; stroke-width: 0.5"/>
    <path d="M 220.696443 298.775667 
L 219.463637 301.429305 
" clip-path="url(#pcc8c4c931e)" style="fill: none; stroke: #ff0000; stroke-width: 0.5"/>
    <path d="M 220.696443 298.775667 
L 217.827851 300.680296 
" clip-path="url(#pcc8c4c931e)" style="fill: none; stroke: #ff0000; stroke-width: 0.5"/>
    <path d="M 221.363712 302.116949 
L 220.192397 304.800194 
" clip-path="url(#pcc8c4c931e)" style="fill: none; stroke: #ff0000; stroke-width: 0.5"/>
    <path d="M 221.363712 302.116949 
L 218.531404 304.076057 
" clip-path="url(#pcc8c4c931e)" style="fill: none; stroke: #ff0000; stroke-width: 0.5"/>
    <path d="M 222.243144 305.358712 
L 221.135643 308.071053 
" clip-path="url(#pcc8c4c931e)" style="fill: none; stroke: #ff0000; stroke-width: 0.5"/>
    <path d="M 222.243144 305.358712 
L 219.449981 307.373302 
" clip-path="url(#pcc8c4c931e)" style="fill: none; stroke: #ff0000; stroke-width: 0.5"/>
    <path d="M 223.329863 308.496485 
L 222.28847 311.237298 
" clip-path="url(#pcc8c4c931e)" style="fill: none; stroke: #ff0000; stroke-width: 0.5"/>
    <path d="M 223.329863 308.496485 
L 220.578858 310.567523 
" clip-path="url(#pcc8c4c931e)" style="fill: none; stroke: #ff0000; stroke-width: 0.5"/>
    <path d="M 224.618711 311.525768 
L 223.645684 314.294308 
" clip-path="url(#pcc8c4c931e)" style="fill: none; stroke: #ff0000; stroke-width: 0.5"/>
    <path d="M 224.618711 311.525768 
L 221.913056 313.654188 
" clip-path="url(#pcc8c4c931e)" style="fill: none; stroke: #ff0000; stroke-width: 0.5"/>
    <path d="M 226.104234 314.442037 
L 225.201743 317.237425 
" clip-path="url(#pcc8c4c931e)" style="fill: none; stroke: #ff0000; stroke-width: 0.5"/>
    <path d="M 226.104234 314.442037 
L 223.447296 316.628727 
" clip-path="url(#pcc8c4c931e)" style="fill: none; stroke: #ff0000; stroke-width: 0.5"/>
    <path d="M 227.780684 317.240758 
L 226.950795 320.061978 
" clip-path="url(#pcc8c4c931e)" style="fill: none; stroke: #ff0000; stroke-width: 0.5"/>
    <path d="M 227.780684 317.240758 
L 225.176041 319.486566 
" clip-path="url(#pcc8c4c931e)" style="fill: none; stroke: #ff0000; stroke-width: 0.5"/>
    <path d="M 229.642006 319.917393 
L 228.886608 322.763274 
" clip-path="url(#pcc8c4c931e)" style="fill: none; stroke: #ff0000; stroke-width: 0.5"/>
    <path d="M 229.642006 319.917393 
L 227.093445 322.223105 
" clip-path="url(#pcc8c4c931e)" style="fill: none; stroke: #ff0000; stroke-width: 0.5"/>
    <path d="M 231.681836 322.467411 
L 231.002642 325.336628 
" clip-path="url(#pcc8c4c931e)" style="fill: none; stroke: #ff0000; stroke-width: 0.5"/>
    <path d="M 231.681836 322.467411 
L 229.19344 324.833786 
" clip-path="url(#pcc8c4c931e)" style="fill: none; stroke: #ff0000; stroke-width: 0.5"/>
    <path d="M 233.893498 324.886299 
L 233.291878 327.777286 
" clip-path="url(#pcc8c4c931e)" style="fill: none; stroke: #ff0000; stroke-width: 0.5"/>
    <path d="M 233.893498 324.886299 
L 231.469642 327.313944 
" clip-path="url(#pcc8c4c931e)" style="fill: none; stroke: #ff0000; stroke-width: 0.5"/>
    <path d="M 236.269997 327.169578 
L 235.90779 329.185934 
" clip-path="url(#pcc8c4c931e)" style="fill: none; stroke: #ff0000; stroke-width: 0.5"/>
    <path d="M 236.269997 327.169578 
L 234.639301 328.89383 
" clip-path="url(#pcc8c4c931e)" style="fill: none; stroke: #ff0000; stroke-width: 0.5"/>
    <path d="M 238.781104 329.355815 
L 238.614895 330.453195 
" clip-path="url(#pcc8c4c931e)" style="fill: none; stroke: #ff0000; stroke-width: 0.5"/>
    <path d="M 238.781104 329.355815 
L 237.927153 330.311699 
" clip-path="url(#pcc8c4c931e)" style="fill: none; stroke: #ff0000; stroke-width: 0.5"/>
    <path d="M 241.374989 331.529522 
L 241.238786 332.630169 
" clip-path="url(#pcc8c4c931e)" style="fill: none; stroke: #ff0000; stroke-width: 0.5"/>
    <path d="M 241.374989 331.529522 
L 240.553184 332.506527 
" clip-path="url(#pcc8c4c931e)" style="fill: none; stroke: #ff0000; stroke-width: 0.5"/>
    <path d="M 244.024862 333.733819 
L 243.918208 334.836847 
" clip-path="url(#pcc8c4c931e)" style="fill: none; stroke: #ff0000; stroke-width: 0.5"/>
    <path d="M 244.024862 333.733819 
L 243.23746 334.731992 
" clip-path="url(#pcc8c4c931e)" style="fill: none; stroke: #ff0000; stroke-width: 0.5"/>
    <path d="M 246.727444 335.967532 
L 246.649503 337.071998 
" clip-path="url(#pcc8c4c931e)" style="fill: none; stroke: #ff0000; stroke-width: 0.5"/>
    <path d="M 246.727444 335.967532 
L 245.977017 336.986891 
" clip-path="url(#pcc8c4c931e)" style="fill: none; stroke: #ff0000; stroke-width: 0.5"/>
    <path d="M 249.479357 338.229528 
L 249.428811 339.334446 
" clip-path="url(#pcc8c4c931e)" style="fill: none; stroke: #ff0000; stroke-width: 0.5"/>
    <path d="M 249.479357 338.229528 
L 248.768875 339.270052 
" clip-path="url(#pcc8c4c931e)" style="fill: none; stroke: #ff0000; stroke-width: 0.5"/>
    <path d="M 252.277123 340.518718 
L 252.252055 341.623078 
" clip-path="url(#pcc8c4c931e)" style="fill: none; stroke: #ff0000; stroke-width: 0.5"/>
    <path d="M 252.277123 340.518718 
L 251.61007 341.580328 
" clip-path="url(#pcc8c4c931e)" style="fill: none; stroke: #ff0000; stroke-width: 0.5"/>
    <path d="M 255.117174 342.834062 
L 255.114926 343.936871 
" clip-path="url(#pcc8c4c931e)" style="fill: none; stroke: #ff0000; stroke-width: 0.5"/>
    <path d="M 255.117174 342.834062 
L 254.49767 343.916585 
" clip-path="url(#pcc8c4c931e)" style="fill: none; stroke: #ff0000; stroke-width: 0.5"/>
    <path d="M 257.995852 345.174572 
L 258.012893 346.274918 
" clip-path="url(#pcc8c4c931e)" style="fill: none; stroke: #ff0000; stroke-width: 0.5"/>
    <path d="M 257.995852 345.174572 
L 257.428782 346.277683 
" clip-path="url(#pcc8c4c931e)" style="fill: none; stroke: #ff0000; stroke-width: 0.5"/>
    <path d="M 260.909418 347.539315 
L 260.941248 348.636459 
" clip-path="url(#pcc8c4c931e)" style="fill: none; stroke: #ff0000; stroke-width: 0.5"/>
    <path d="M 260.909418 347.539315 
L 260.400515 348.662451 
" clip-path="url(#pcc8c4c931e)" style="fill: none; stroke: #ff0000; stroke-width: 0.5"/>
    <path d="M 263.854058 349.927422 
L 263.895223 351.02093 
" clip-path="url(#pcc8c4c931e)" style="fill: none; stroke: #ff0000; stroke-width: 0.5"/>
    <path d="M 263.854058 349.927422 
L 263.409872 351.069653 
" clip-path="url(#pcc8c4c931e)" style="fill: none; stroke: #ff0000; stroke-width: 0.5"/>
    <path d="M 266.825887 352.338084 
L 266.87022 353.427981 
" clip-path="url(#pcc8c4c931e)" style="fill: none; stroke: #ff0000; stroke-width: 0.5"/>
    <path d="M 266.825887 352.338084 
L 266.453547 353.497966 
" clip-path="url(#pcc8c4c931e)" style="fill: none; stroke: #ff0000; stroke-width: 0.5"/>
    <path d="M 269.820959 354.770559 
L 269.862135 355.85748 
" clip-path="url(#pcc8c4c931e)" style="fill: none; stroke: #ff0000; stroke-width: 0.5"/>
    <path d="M 269.820959 354.770559 
L 269.527603 355.946 
" clip-path="url(#pcc8c4c931e)" style="fill: none; stroke: #ff0000; stroke-width: 0.5"/>
    <path d="M 272.835275 357.224176 
L 272.867697 358.309427 
" clip-path="url(#pcc8c4c931e)" style="fill: none; stroke: #ff0000; stroke-width: 0.5"/>
    <path d="M 272.835275 357.224176 
L 272.62716 358.41237 
" clip-path="url(#pcc8c4c931e)" style="fill: none; stroke: #ff0000; stroke-width: 0.5"/>
    <path d="M 275.864787 359.698332 
L 275.884621 360.783811 
" clip-path="url(#pcc8c4c931e)" style="fill: none; stroke: #ff0000; stroke-width: 0.5"/>
    <path d="M 275.864787 359.698332 
L 275.74625 360.895857 
" clip-path="url(#pcc8c4c931e)" style="fill: none; stroke: #ff0000; stroke-width: 0.5"/>
    <path d="M 278.905411 362.1925 
L 278.91138 363.280439 
" clip-path="url(#pcc8c4c931e)" style="fill: none; stroke: #ff0000; stroke-width: 0.5"/>
    <path d="M 278.905411 362.1925 
L 278.878072 363.395582 
" clip-path="url(#pcc8c4c931e)" style="fill: none; stroke: #ff0000; stroke-width: 0.5"/>
    <path d="M 281.953034 364.706226 
L 281.946613 365.798832 
" clip-path="url(#pcc8c4c931e)" style="fill: none; stroke: #ff0000; stroke-width: 0.5"/>
    <path d="M 281.953034 364.706226 
L 282.015598 365.911106 
" clip-path="url(#pcc8c4c931e)" style="fill: none; stroke: #ff0000; stroke-width: 0.5"/>
    <path d="M 285.003522 367.239129 
L 284.988462 368.338258 
" clip-path="url(#pcc8c4c931e)" style="fill: none; stroke: #ff0000; stroke-width: 0.5"/>
    <path d="M 285.003522 367.239129 
L 285.152254 368.442404 
" clip-path="url(#pcc8c4c931e)" style="fill: none; stroke: #ff0000; stroke-width: 0.5"/>
    <path d="M 288.052728 369.790905 
L 288.034176 370.897869 
" clip-path="url(#pcc8c4c931e)" style="fill: none; stroke: #ff0000; stroke-width: 0.5"/>
    <path d="M 288.052728 369.790905 
L 288.282343 370.989726 
" clip-path="url(#pcc8c4c931e)" style="fill: none; stroke: #ff0000; stroke-width: 0.5"/>
    <path d="M 291.096502 372.361324 
L 291.080094 373.476858 
" clip-path="url(#pcc8c4c931e)" style="fill: none; stroke: #ff0000; stroke-width: 0.5"/>
    <path d="M 291.096502 372.361324 
L 291.40107 373.553441 
" clip-path="url(#pcc8c4c931e)" style="fill: none; stroke: #ff0000; stroke-width: 0.5"/>
    <path d="M 294.130701 374.95023 
L 294.121885 376.07456 
" clip-path="url(#pcc8c4c931e)" style="fill: none; stroke: #ff0000; stroke-width: 0.5"/>
    <path d="M 294.130701 374.95023 
L 294.504331 376.133929 
" clip-path="url(#pcc8c4c931e)" style="fill: none; stroke: #ff0000; stroke-width: 0.5"/>
    <path d="M 297.151192 377.557541 
L 297.154836 378.690503 
" clip-path="url(#pcc8c4c931e)" style="fill: none; stroke: #ff0000; stroke-width: 0.5"/>
    <path d="M 297.151192 377.557541 
L 297.588432 378.731534 
" clip-path="url(#pcc8c4c931e)" style="fill: none; stroke: #ff0000; stroke-width: 0.5"/>
    <path d="M 300.153867 380.183242 
L 300.174104 381.324399 
" clip-path="url(#pcc8c4c931e)" style="fill: none; stroke: #ff0000; stroke-width: 0.5"/>
    <path d="M 300.153867 380.183242 
L 300.649866 381.346563 
" clip-path="url(#pcc8c4c931e)" style="fill: none; stroke: #ff0000; stroke-width: 0.5"/>
    <path d="M 303.134645 382.827391 
L 303.17486 383.976128 
" clip-path="url(#pcc8c4c931e)" style="fill: none; stroke: #ff0000; stroke-width: 0.5"/>
    <path d="M 303.134645 382.827391 
L 303.685176 383.9793 
" clip-path="url(#pcc8c4c931e)" style="fill: none; stroke: #ff0000; stroke-width: 0.5"/>
    <path d="M 306.089481 385.490111 
L 306.152374 386.64571 
" clip-path="url(#pcc8c4c931e)" style="fill: none; stroke: #ff0000; stroke-width: 0.5"/>
    <path d="M 306.089481 385.490111 
L 306.690887 386.630029 
" clip-path="url(#pcc8c4c931e)" style="fill: none; stroke: #ff0000; stroke-width: 0.5"/>
    <path d="M 309.014375 388.171589 
L 309.102051 389.33328 
" clip-path="url(#pcc8c4c931e)" style="fill: none; stroke: #ff0000; stroke-width: 0.5"/>
    <path d="M 309.014375 388.171589 
L 309.663486 389.299052 
" clip-path="url(#pcc8c4c931e)" style="fill: none; stroke: #ff0000; stroke-width: 0.5"/>
    <path d="M 311.905376 390.87207 
L 312.186034 393.743495 
" clip-path="url(#pcc8c4c931e)" style="fill: none; stroke: #ff0000; stroke-width: 0.5"/>
    <path d="M 311.905376 390.87207 
L 313.61366 393.615543 
" clip-path="url(#pcc8c4c931e)" style="fill: none; stroke: #ff0000; stroke-width: 0.5"/>
    <path d="M 314.728018 393.505554 
L 315.105537 396.627907 
" clip-path="url(#pcc8c4c931e)" style="fill: none; stroke: #ff0000; stroke-width: 0.5"/>
    <path d="M 314.728018 393.505554 
L 316.691777 396.442261 
" clip-path="url(#pcc8c4c931e)" style="fill: none; stroke: #ff0000; stroke-width: 0.5"/>
    <path d="M 317.440537 395.974251 
L 317.895048 399.114861 
" clip-path="url(#pcc8c4c931e)" style="fill: none; stroke: #ff0000; stroke-width: 0.5"/>
    <path d="M 317.440537 395.974251 
L 319.517203 398.882664 
" clip-path="url(#pcc8c4c931e)" style="fill: none; stroke: #ff0000; stroke-width: 0.5"/>
    <path d="M 320.028642 398.266696 
L 320.562101 401.423708 
" clip-path="url(#pcc8c4c931e)" style="fill: none; stroke: #ff0000; stroke-width: 0.5"/>
    <path d="M 320.028642 398.266696 
L 322.213536 401.146007 
" clip-path="url(#pcc8c4c931e)" style="fill: none; stroke: #ff0000; stroke-width: 0.5"/>
    <path d="M 322.48232 400.383261 
L 323.096085 403.554889 
" clip-path="url(#pcc8c4c931e)" style="fill: none; stroke: #ff0000; stroke-width: 0.5"/>
    <path d="M 322.48232 400.383261 
L 324.771189 403.232757 
" clip-path="url(#pcc8c4c931e)" style="fill: none; stroke: #ff0000; stroke-width: 0.5"/>
    <path d="M 324.791704 402.324463 
L 325.486642 405.509002 
" clip-path="url(#pcc8c4c931e)" style="fill: none; stroke: #ff0000; stroke-width: 0.5"/>
    <path d="M 324.791704 402.324463 
L 327.180646 405.14352 
" clip-path="url(#pcc8c4c931e)" style="fill: none; stroke: #ff0000; stroke-width: 0.5"/>
    <path d="M 326.947092 404.090963 
L 327.723661 407.28679 
" clip-path="url(#pcc8c4c931e)" style="fill: none; stroke: #ff0000; stroke-width: 0.5"/>
    <path d="M 326.947092 404.090963 
L 329.432486 406.879035 
" clip-path="url(#pcc8c4c931e)" style="fill: none; stroke: #ff0000; stroke-width: 0.5"/>
    <path d="M 328.938949 405.683548 
L 329.797272 408.889133 
" clip-path="url(#pcc8c4c931e)" style="fill: none; stroke: #ff0000; stroke-width: 0.5"/>
    <path d="M 328.938949 405.683548 
L 331.517411 408.440168 
" clip-path="url(#pcc8c4c931e)" style="fill: none; stroke: #ff0000; stroke-width: 0.5"/>
    <path d="M 330.757919 407.103131 
L 331.697841 410.317033 
" clip-path="url(#pcc8c4c931e)" style="fill: none; stroke: #ff0000; stroke-width: 0.5"/>
    <path d="M 330.757919 407.103131 
L 333.426266 409.827904 
" clip-path="url(#pcc8c4c931e)" style="fill: none; stroke: #ff0000; stroke-width: 0.5"/>
    <path d="M 332.39483 408.350742 
L 333.415965 411.571608 
" clip-path="url(#pcc8c4c931e)" style="fill: none; stroke: #ff0000; stroke-width: 0.5"/>
    <path d="M 332.39483 408.350742 
L 335.150049 411.043338 
" clip-path="url(#pcc8c4c931e)" style="fill: none; stroke: #ff0000; stroke-width: 0.5"/>
    <path d="M 333.840702 409.427514 
L 334.942475 412.654082 
" clip-path="url(#pcc8c4c931e)" style="fill: none; stroke: #ff0000; stroke-width: 0.5"/>
    <path d="M 333.840702 409.427514 
L 336.679932 412.087673 
" clip-path="url(#pcc8c4c931e)" style="fill: none; stroke: #ff0000; stroke-width: 0.5"/>
    <path d="M 335.086751 410.334685 
L 336.268429 413.565778 
" clip-path="url(#pcc8c4c931e)" style="fill: none; stroke: #ff0000; stroke-width: 0.5"/>
    <path d="M 335.086751 410.334685 
L 338.007262 412.962204 
" clip-path="url(#pcc8c4c931e)" style="fill: none; stroke: #ff0000; stroke-width: 0.5"/>
    <path d="M 336.124392 411.073581 
L 337.385115 414.308108 
" clip-path="url(#pcc8c4c931e)" style="fill: none; stroke: #ff0000; stroke-width: 0.5"/>
    <path d="M 336.124392 411.073581 
L 339.123574 413.668319 
" clip-path="url(#pcc8c4c931e)" style="fill: none; stroke: #ff0000; stroke-width: 0.5"/>
    <path d="M 336.945243 411.645615 
L 338.284046 414.882565 
" clip-path="url(#pcc8c4c931e)" style="fill: none; stroke: #ff0000; stroke-width: 0.5"/>
    <path d="M 336.945243 411.645615 
L 340.020598 414.207484 
" clip-path="url(#pcc8c4c931e)" style="fill: none; stroke: #ff0000; stroke-width: 0.5"/>
    <path d="M 337.54113 412.052279 
L 338.956962 415.290718 
" clip-path="url(#pcc8c4c931e)" style="fill: none; stroke: #ff0000; stroke-width: 0.5"/>
    <path d="M 337.54113 412.052279 
L 340.690257 414.581241 
" clip-path="url(#pcc8c4c931e)" style="fill: none; stroke: #ff0000; stroke-width: 0.5"/>
    <path d="M 337.904083 412.295135 
L 339.395828 415.534204 
" clip-path="url(#pcc8c4c931e)" style="fill: none; stroke: #ff0000; stroke-width: 0.5"/>
    <path d="M 337.904083 412.295135 
L 341.124679 414.791202 
" clip-path="url(#pcc8c4c931e)" style="fill: none; stroke: #ff0000; stroke-width: 0.5"/>
   </g>
  </g>
 </g>
 <defs>
  <clipPath id="pcc8c4c931e">
   <rect x="57.6" y="57.6" width="460.8" height="460.8"/>
  </clipPath>
 </defs>
</svg>
